<svg xmlns="http://www.w3.org/2000/svg" width="640" height="360" viewBox="0 0 640 360" role="img" aria-labelledby="title"><title id="title">カサゴの唐揚げ：厚い身に切れ目</title><rect width="640" height="360" rx="20" fill="#f1f7fa"/><text x="30" y="39" font-family="sans-serif" font-size="14" fill="#167d98">STEP 02 · カサゴ</text><text x="30" y="69" font-family="sans-serif" font-size="23" font-weight="700" fill="#153c51">厚い身に切れ目</text><rect x="65" y="84" width="510" height="215" rx="24" fill="#fff" stroke="#d8e7ed" stroke-width="3"/><path d="M142 180 Q225 107 363 174 L412 132 L405 222 L363 188 Q239 265 142 180Z" fill="#bfd4dd" stroke="#325667" stroke-width="3"/><circle cx="169" cy="175" r="6" fill="#173d51"/><path d="M219 147 L261 118 L290 139 M222 213 L251 241 L273 218" fill="#739daa" stroke="#325667" stroke-width="2"/><path d="M231 148 l-12 52 M279 143 l-12 62 M326 151 l-12 51" stroke="#34586c" stroke-width="4"/><path d="M436 100 l-58 64 18 15 68-57Z" fill="#b4c8d1"/><text x="610" y="336" text-anchor="end" font-family="sans-serif" font-size="12" fill="#607e8e">UOLINK · 工程図（模式図）</text></svg>