<svg xmlns="http://www.w3.org/2000/svg" width="640" height="360" viewBox="0 0 640 360" role="img" aria-labelledby="title"><title id="title">サワラの西京焼き：焼き色より中心を確認</title><rect width="640" height="360" rx="20" fill="#f1f7fa"/><text x="30" y="39" font-family="sans-serif" font-size="14" fill="#167d98">STEP 04 · サワラ</text><text x="30" y="69" font-family="sans-serif" font-size="23" font-weight="700" fill="#153c51">焼き色より中心を確認</text><rect x="91" y="108" width="424" height="164" rx="12" fill="#e6edf0"/><path d="M106 113 V269" stroke="#859aa5" stroke-width="3"/><path d="M131 113 V269" stroke="#859aa5" stroke-width="3"/><path d="M156 113 V269" stroke="#859aa5" stroke-width="3"/><path d="M181 113 V269" stroke="#859aa5" stroke-width="3"/><path d="M206 113 V269" stroke="#859aa5" stroke-width="3"/><path d="M231 113 V269" stroke="#859aa5" stroke-width="3"/><path d="M256 113 V269" stroke="#859aa5" stroke-width="3"/><path d="M281 113 V269" stroke="#859aa5" stroke-width="3"/><path d="M306 113 V269" stroke="#859aa5" stroke-width="3"/><path d="M331 113 V269" stroke="#859aa5" stroke-width="3"/><path d="M356 113 V269" stroke="#859aa5" stroke-width="3"/><path d="M381 113 V269" stroke="#859aa5" stroke-width="3"/><path d="M406 113 V269" stroke="#859aa5" stroke-width="3"/><path d="M431 113 V269" stroke="#859aa5" stroke-width="3"/><path d="M456 113 V269" stroke="#859aa5" stroke-width="3"/><path d="M481 113 V269" stroke="#859aa5" stroke-width="3"/><path d="M180 154 Q250 99 343 148 L375 220 Q284 250 175 205Z" fill="#e4c597" stroke="#325667" stroke-width="3"/><path d="M190 200 Q270 230 365 215" fill="none" stroke="#74929d" stroke-width="10"/><path d="M432 98 l-58 77" stroke="#438fa5" stroke-width="5"/><rect x="417" y="70" width="43" height="45" rx="10" fill="#176780"/><text x="610" y="336" text-anchor="end" font-family="sans-serif" font-size="12" fill="#607e8e">UOLINK · 工程図（模式図）</text></svg>